<svg width="175" height="175" viewBox="0 0 175 175" fill="none" xmlns="http://www.w3.org/2000/svg">
<path d="M87.4178 0C39.1399 0 0 39.1749 0 87.5C0 135.825 39.1399 175 87.4178 175C135.696 175 174.836 135.825 174.836 87.5C174.836 39.1749 135.696 0 87.4178 0ZM45.9241 123.973H22.116V116.753H45.9241V123.973V123.973ZM45.9241 114.589H22.116V107.363H45.9241V114.589V114.589ZM45.9241 105.201H22.116V97.9767H45.9241V105.201V105.201ZM45.9241 95.8087H22.116V88.5885H45.9241V95.8087V95.8087ZM45.9241 86.4187H22.116V79.1967H45.9241V86.4187V86.4187ZM72.6243 123.973H48.8127V116.753H72.6243V123.973ZM72.6243 114.589H48.8127V107.363H72.6243V114.589ZM72.6243 105.201H48.8127V97.9767H72.6243V105.201ZM99.3227 123.973H75.5129V116.753H99.3245L99.3227 123.973ZM99.3227 114.589H75.5129V107.363H99.3245L99.3227 114.589ZM99.3227 105.201H75.5129V97.9767H99.3245L99.3227 105.201ZM99.3227 95.8087H75.5129V88.5885H99.3245L99.3227 95.8087ZM99.3227 86.4187H75.5129V79.1967H99.3245L99.3227 86.4187ZM99.3227 77.0286H75.5129V69.8066H99.3245L99.3227 77.0286ZM99.3227 67.6422H75.5129V60.4184H99.3245L99.3227 67.6422ZM126.019 123.973H102.209V116.753H126.021L126.019 123.973ZM126.019 114.589H102.209V107.363H126.021L126.019 114.589ZM126.019 105.201H102.209V97.9767H126.021L126.019 105.201ZM126.019 95.8087H102.209V88.5885H126.021L126.019 95.8087ZM126.019 86.4187H102.209V79.1967H126.021L126.019 86.4187ZM152.72 123.973H128.908V116.753H152.718V123.973H152.72ZM152.72 114.589H128.908V107.363H152.718V114.589H152.72ZM152.72 105.195H128.908V97.9731H152.718V105.195H152.72ZM152.72 95.8087H128.908V88.5831H152.718V95.8087H152.72ZM152.72 86.4187H128.908V79.1913H152.718V86.4187H152.72ZM152.72 77.0269H128.908V69.8066H152.718V77.0269H152.72ZM152.72 67.6368H128.908V60.4166H152.718V67.6368H152.72ZM128.908 58.2486V51.0266H152.718V58.2486H128.908Z" fill="white"/>
</svg>
