<svg width="92" height="92" viewBox="0 0 92 92" fill="none" xmlns="http://www.w3.org/2000/svg">
<path d="M90.9392 46C90.9392 70.8534 70.805 91 45.9696 91C21.1342 91 1 70.8534 1 46C1 21.1466 21.1342 1 45.9696 1C70.805 1 90.9392 21.1466 90.9392 46Z" stroke="white" stroke-width="2"/>
<path fill-rule="evenodd" clip-rule="evenodd" d="M22.9847 4.14429C29.1219 4.14429 29.8488 4.16766 32.2725 4.27831C34.5135 4.38066 35.7305 4.75535 36.5405 5.07024C37.6133 5.48747 38.3791 5.98596 39.1833 6.79076C39.9876 7.59556 40.4858 8.36183 40.9026 9.43532C41.2174 10.2459 41.5918 11.4637 41.6941 13.7061C41.8047 16.1314 41.8281 16.8588 41.8281 23.0001C41.8281 29.1414 41.8047 29.8688 41.6941 32.294C41.5918 34.5365 41.2174 35.7543 40.9026 36.5649C40.4858 37.6384 39.9876 38.4047 39.1833 39.2094C38.3791 40.0142 37.6133 40.5127 36.5405 40.9299C35.7305 41.2449 34.5135 41.6196 32.2725 41.7219C29.8492 41.8326 29.1223 41.8559 22.9847 41.8559C16.8471 41.8559 16.1202 41.8326 13.6969 41.7219C11.4559 41.6196 10.2389 41.2449 9.42898 40.9299C8.35611 40.5127 7.59035 40.0142 6.78608 39.2094C5.98182 38.4047 5.48365 37.6384 5.06679 36.5649C4.75202 35.7543 4.37757 34.5365 4.2753 32.2941C4.16471 29.8688 4.14136 29.1414 4.14136 23.0001C4.14136 16.8588 4.16471 16.1314 4.2753 13.7062C4.37757 11.4637 4.75202 10.2459 5.06679 9.43532C5.48365 8.36183 5.98182 7.59556 6.78608 6.79076C7.59035 5.98596 8.35611 5.48747 9.42898 5.07024C10.2389 4.75535 11.4559 4.38066 13.6968 4.27831C16.1206 4.16766 16.8475 4.14429 22.9847 4.14429ZM22.9848 0C16.7424 0 15.9598 0.0264766 13.5082 0.138409C11.0616 0.250158 9.39088 0.638908 7.92879 1.20752C6.41734 1.7953 5.13553 2.58174 3.85774 3.86038C2.57995 5.13902 1.79402 6.42167 1.20663 7.93413C0.638394 9.39719 0.249902 11.069 0.138226 13.5172C0.0263679 15.9703 0 16.7536 0 23C0 29.2465 0.0263679 30.0298 0.138226 32.4829C0.249902 34.931 0.638394 36.6029 1.20663 38.066C1.79402 39.5783 2.57995 40.8611 3.85774 42.1397C5.13553 43.4183 6.41734 44.2048 7.92879 44.7926C9.39088 45.3612 11.0616 45.7499 13.5082 45.8617C15.9598 45.9736 16.7424 46 22.9848 46C29.2271 46 30.0098 45.9736 32.4613 45.8617C34.9079 45.7499 36.5786 45.3612 38.0407 44.7926C39.5522 44.2048 40.834 43.4183 42.1118 42.1397C43.3896 40.8611 44.1755 39.5784 44.7629 38.066C45.3311 36.6029 45.7196 34.931 45.8313 32.4829C45.9431 30.0298 45.9696 29.2465 45.9696 23C45.9696 16.7536 45.9431 15.9703 45.8313 13.5172C45.7196 11.069 45.3311 9.39719 44.7629 7.93413C44.1755 6.42167 43.3896 5.13902 42.1118 3.86038C40.834 2.58174 39.5522 1.7953 38.0407 1.20752C36.5786 0.638908 34.9079 0.250158 32.4613 0.138409C30.0098 0.0264766 29.2271 0 22.9848 0ZM23.0304 11.2261C16.507 11.2261 11.2188 16.5178 11.2188 23.0455C11.2188 29.5732 16.507 34.865 23.0304 34.865C29.5537 34.865 34.842 29.5732 34.842 23.0455C34.842 16.5178 29.5537 11.2261 23.0304 11.2261ZM23.0305 30.7179C18.7961 30.7179 15.3633 27.2828 15.3633 23.0456C15.3633 18.8083 18.7961 15.3733 23.0305 15.3733C27.2649 15.3733 30.6977 18.8083 30.6977 23.0456C30.6977 27.2828 27.2649 30.7179 23.0305 30.7179ZM37.943 10.6785C37.943 12.1907 36.718 13.4166 35.2068 13.4166C33.6956 13.4166 32.4705 12.1907 32.4705 10.6785C32.4705 9.16626 33.6956 7.94043 35.2068 7.94043C36.718 7.94043 37.943 9.16626 37.943 10.6785Z" transform="translate(22.9849 23)" fill="white"/>
</svg>
