<svg width="67" height="59" viewBox="0 0 67 59" fill="none" xmlns="http://www.w3.org/2000/svg">
<path d="M59.0122 1.59105e-05H15.8283C14.7301 -0.00218397 13.6435 0.223766 12.6378 0.663468C11.632 1.10317 10.7291 1.74698 9.98663 2.55388L9.96546 2.57596L9.94813 2.59419L9.92022 2.62682L9.90386 2.64506C8.57823 4.10226 7.84226 5.99835 7.83859 7.96585V27.1414C7.83859 27.5317 7.68316 27.9059 7.40648 28.1818C7.1298 28.4577 6.75455 28.6127 6.36326 28.6127H0.891165C0.654813 28.6127 0.428142 28.7064 0.261016 28.873C0.0938903 29.0397 0 29.2657 0 29.5014C0 29.7372 0.0938903 29.9632 0.261016 30.1299C0.428142 30.2965 0.654813 30.3902 0.891165 30.3902H6.36326C6.55717 30.3902 6.74917 30.4283 6.92829 30.5023C7.10741 30.5764 7.27014 30.6849 7.40716 30.8218C7.54418 30.9586 7.65281 31.121 7.72684 31.2997C7.80087 31.4785 7.83885 31.67 7.83859 31.8634V51.0342C7.84165 53.1459 8.68419 55.1703 10.1815 56.6635C11.6789 58.1567 13.7088 58.997 15.8264 59H59.0122C61.1299 58.9972 63.16 58.1571 64.6573 56.6638C66.1547 55.1705 66.9972 53.146 67 51.0342V7.96585C66.9972 5.85404 66.1547 3.82952 64.6573 2.33624C63.16 0.842962 61.1299 0.00280915 59.0122 1.59105e-05ZM36.5291 55.7532C36.5291 56.1434 36.3737 56.5176 36.097 56.7936C35.8203 57.0695 35.445 57.2245 35.0538 57.2245H15.8283C14.1826 57.2225 12.6049 56.5696 11.4413 55.4091C10.2776 54.2487 9.62296 52.6753 9.62092 51.0342V31.8634C9.62092 31.4732 9.77636 31.0989 10.053 30.823C10.3297 30.5471 10.705 30.3921 11.0963 30.3921H16.5684C16.6854 30.3921 16.8013 30.3691 16.9094 30.3244C17.0175 30.2798 17.1157 30.2143 17.1985 30.1318C17.2813 30.0493 17.3469 29.9513 17.3917 29.8435C17.4365 29.7356 17.4595 29.6201 17.4595 29.5034C17.4595 29.3867 17.4365 29.2711 17.3917 29.1633C17.3469 29.0554 17.2813 28.9575 17.1985 28.8749C17.1157 28.7924 17.0175 28.727 16.9094 28.6823C16.8013 28.6376 16.6854 28.6146 16.5684 28.6146H11.0953C10.7043 28.6136 10.3298 28.4579 10.0539 28.1817C9.77798 27.9055 9.6233 27.5313 9.62381 27.1414V7.96585C9.62389 7.53853 9.6684 7.11237 9.75662 6.6942C9.81114 6.43946 9.93249 6.20372 10.1083 6.01107C10.2841 5.81842 10.508 5.67576 10.7572 5.59768C11.0064 5.5196 11.2719 5.50889 11.5266 5.56664C11.7813 5.6244 12.016 5.74855 12.2068 5.92641L21.2859 14.3779C21.371 14.4603 21.4716 14.5249 21.582 14.568C21.6924 14.6111 21.8103 14.6318 21.9289 14.6289C22.0474 14.626 22.1641 14.5995 22.2723 14.5511C22.3804 14.5026 22.4777 14.4331 22.5586 14.3467C22.6395 14.2602 22.7022 14.1585 22.7432 14.0476C22.7842 13.9366 22.8025 13.8187 22.7972 13.7005C22.7919 13.5824 22.763 13.4666 22.7122 13.3597C22.6614 13.2529 22.5898 13.1573 22.5014 13.0784L13.3511 4.55974C13.1638 4.38528 13.0252 4.16516 12.9491 3.92106C12.873 3.67696 12.8621 3.4173 12.9172 3.16767C12.9724 2.91803 13.0918 2.68705 13.2638 2.49746C13.4357 2.30787 13.6542 2.16623 13.8977 2.08649C14.5208 1.88209 15.1724 1.77777 15.8283 1.77745H35.0538C35.445 1.77745 35.8203 1.93246 36.097 2.20838C36.3737 2.4843 36.5291 2.85853 36.5291 3.24873V14.3443C36.5291 14.6957 36.4029 15.0355 36.1734 15.3022C35.9439 15.5689 35.6263 15.7449 35.278 15.7983C28.5702 16.8358 23.5129 22.7266 23.5129 29.5014C23.5129 36.2762 28.5702 42.17 35.278 43.2036C35.6263 43.2571 35.9439 43.433 36.1734 43.6997C36.4029 43.9664 36.5291 44.3062 36.5291 44.6576V55.7532ZM25.2971 29.5014C25.2971 27.1097 26.0083 24.7717 27.3407 22.7831C28.6732 20.7945 30.567 19.2445 32.7827 18.3292C34.9985 17.414 37.4366 17.1745 39.7888 17.6411C42.141 18.1077 44.3017 19.2594 45.9975 20.9506C47.6934 22.6418 48.8483 24.7965 49.3162 27.1423C49.784 29.488 49.5439 31.9195 48.6261 34.1291C47.7083 36.3388 46.1541 38.2274 44.16 39.5562C42.1659 40.8849 39.8214 41.5942 37.4231 41.5942C34.2081 41.5911 31.1255 40.3161 28.8521 38.0489C26.5787 35.7818 25.3002 32.7077 25.2971 29.5014ZM65.2206 7.96585V51.0342C65.2192 51.5212 65.1601 52.0063 65.0444 52.4795C64.9839 52.7294 64.8588 52.9591 64.6816 53.1457C64.5044 53.3324 64.2812 53.4695 64.0344 53.5434C63.7875 53.6172 63.5255 53.6253 63.2745 53.5668C63.0235 53.5083 62.7923 53.3853 62.6038 53.2099L53.4208 44.6624C53.2558 44.5087 53.0384 44.4233 52.8126 44.4235C52.6343 44.424 52.4603 44.4779 52.3131 44.5782C52.1658 44.6784 52.0521 44.8203 51.9866 44.9857C51.9211 45.151 51.9068 45.3322 51.9457 45.5057C51.9845 45.6792 52.0746 45.8371 52.2044 45.9591L61.3585 54.4796C61.5487 54.6567 61.6885 54.8808 61.7638 55.1291C61.8391 55.3775 61.8472 55.6413 61.7873 55.8937C61.7274 56.1462 61.6017 56.3784 61.4227 56.5668C61.2438 56.7552 61.0181 56.893 60.7686 56.9663C60.1984 57.1347 59.6069 57.2207 59.0122 57.2216H39.7868C39.3955 57.2216 39.0202 57.0666 38.7435 56.7907C38.4669 56.5148 38.3114 56.1405 38.3114 55.7503V44.6567C38.3115 44.3053 38.4376 43.9655 38.6671 43.6988C38.8966 43.4321 39.2142 43.2561 39.5625 43.2027C46.2674 42.1652 51.3257 36.2782 51.3257 29.5014C51.3257 22.7247 46.2684 16.8329 39.5606 15.7983C39.2123 15.7449 38.8947 15.5689 38.6652 15.3022C38.4357 15.0355 38.3095 14.6957 38.3095 14.3443V3.24873C38.3095 2.85853 38.4649 2.4843 38.7416 2.20838C39.0183 1.93246 39.3935 1.77745 39.7848 1.77745H59.0122C59.621 1.77752 60.2264 1.8671 60.809 2.0433C61.057 2.11842 61.2808 2.25738 61.4579 2.44619C61.6349 2.63499 61.7589 2.86698 61.8175 3.1188C61.876 3.37061 61.867 3.63336 61.7913 3.88059C61.7156 4.12783 61.576 4.35081 61.3864 4.52711L52.2024 13.0755C52.0298 13.2365 51.9283 13.4592 51.9202 13.6947C51.9121 13.9303 51.998 14.1594 52.1591 14.3318C52.239 14.4171 52.3349 14.486 52.4415 14.5343C52.548 14.5827 52.663 14.6096 52.78 14.6136C52.897 14.6177 53.0136 14.5986 53.1233 14.5577C53.2329 14.5167 53.3333 14.4547 53.4189 14.375L62.6096 5.82084C62.7986 5.64377 63.0311 5.51952 63.2836 5.46059C63.5361 5.40166 63.7997 5.41014 64.0478 5.48517C64.296 5.5602 64.5199 5.69913 64.6971 5.88797C64.8742 6.07681 64.9984 6.30888 65.057 6.56079C65.1652 7.02136 65.2201 7.4928 65.2206 7.96585Z" fill="white"/>
</svg>
