<svg width="92" height="92" viewBox="0 0 92 92" fill="none" xmlns="http://www.w3.org/2000/svg">
<path d="M90.9392 46C90.9392 70.8534 70.805 91 45.9696 91C21.1342 91 1 70.8534 1 46C1 21.1466 21.1342 1 45.9696 1C70.805 1 90.9392 21.1466 90.9392 46Z" stroke="white" stroke-width="2"/>
<path fill-rule="evenodd" clip-rule="evenodd" d="M38.7109 5.95017C40.5704 4.7759 41.9973 2.91392 42.667 0.695862C40.9259 1.78587 39.0019 2.57415 36.9492 3.00091C35.3111 1.15252 32.9699 0 30.3789 0C25.408 0 21.3798 4.254 21.3798 9.50015C21.3798 10.2449 21.4545 10.9707 21.6091 11.6638C14.1296 11.267 7.4975 7.48867 3.05463 1.73694C2.27938 3.14497 1.83638 4.7759 1.83638 6.51555C1.83638 9.81003 3.42551 12.7185 5.8414 14.4255C4.3656 14.3766 2.97736 13.9444 1.76169 13.2377V13.3546C1.76169 17.9592 4.86268 21.8001 8.98618 22.6699C8.22896 22.8928 7.43568 23.0042 6.6115 23.0042C6.03199 23.0042 5.46537 22.9471 4.91935 22.8357C6.0629 26.6086 9.38797 29.3594 13.3286 29.4328C10.2456 31.9825 6.36424 33.4992 2.14803 33.4992C1.42172 33.4992 0.703132 33.4585 0 33.3688C3.98441 36.0625 8.71574 37.6364 13.7999 37.6364C30.3609 37.6364 39.4114 23.1592 39.4114 10.6037C39.4114 10.1906 39.4063 9.78013 39.3883 9.37511C41.1474 8.03503 42.6773 6.36062 43.8801 4.45515C42.2652 5.21081 40.5292 5.72184 38.7109 5.95017Z" transform="translate(25.0742 29.2727)" fill="white"/>
</svg>
