<svg width="74" height="59" viewBox="0 0 74 59" fill="none" xmlns="http://www.w3.org/2000/svg">
<path d="M0.00112155 50.2514V49.2768L10.9306 41.7828L0.00448536 37.6247V21.3764L10.9306 17.2194L0 9.72542V8.74974L11.8433 16.8711L29.1519 10.29V0H29.9582V10.281L47.3038 16.8755L59.0697 8.81023V9.78479L48.2188 17.2284L59.0753 21.3529V37.646L48.2199 41.7761L59.0753 49.2219V50.1954L47.3015 42.1301L29.9772 48.7134V59H29.171V48.719L11.8433 42.1312L0.00112155 50.2514ZM58.2657 22.2647C58.194 22.2647 58.1413 22.2558 58.0897 22.2558C52.4136 22.2558 46.7375 22.2558 41.0614 22.2558C40.9474 22.2572 40.8362 22.291 40.7407 22.3532C37.9113 24.2882 35.0844 26.225 32.2602 28.1636C31.6211 28.6016 30.983 29.043 30.3259 29.4955C30.3798 29.5403 30.41 29.5695 30.4448 29.593C32.1784 30.7819 33.9123 31.97 35.6466 33.1574C37.2747 34.2776 38.8984 35.4045 40.531 36.5179C40.6832 36.6201 40.8613 36.6772 41.0446 36.6826C46.6758 36.6908 52.3071 36.6931 57.9383 36.6893H58.2657V22.2647ZM28.8335 29.5067C28.7281 29.4305 28.6653 29.3824 28.5991 29.3376C25.2284 27.0225 21.8563 24.7105 18.4826 22.4014C18.3428 22.3113 18.1803 22.2628 18.0139 22.2614C12.373 22.2547 6.732 22.2528 1.09104 22.2558H0.808468V36.6916H1.13701C6.62585 36.6916 12.1147 36.686 17.6035 36.7017C18.1066 36.7147 18.5997 36.5602 19.0052 36.2625C21.4294 34.5632 23.8817 32.902 26.324 31.2217L28.8335 29.5067ZM29.9772 47.3367L40.2058 37.255L29.9772 30.2449V47.3367ZM40.2114 21.7383L29.9895 11.6566V28.7472L40.2114 21.7383ZM29.1441 47.3523V30.2718L18.9244 37.2785L29.1441 47.3523ZM29.1441 11.6779L18.9401 21.736L29.1441 28.7316V11.6779ZM31.3385 47.2235L31.3946 47.3131L46.4942 41.5711L40.9347 37.7625L31.3385 47.2235ZM46.493 17.4267L31.3889 11.6835L31.3463 11.7462L40.956 21.2219L46.493 17.4267ZM18.1698 37.7938L12.6518 41.5767L27.7312 47.3109L27.7693 47.2549L18.1698 37.7938ZM12.6518 17.4256L18.153 21.195L27.7503 11.7361L27.7211 11.6947L12.6518 17.4256ZM17.0821 37.5653H2.21796L2.20787 37.6034L11.739 41.2283L17.0821 37.5653ZM2.13723 21.4257H17.0653L11.7357 17.7739L2.13723 21.4257ZM47.4136 41.2227L56.919 37.6045L56.9044 37.572H42.0863L47.4136 41.2227ZM47.4136 17.7762L42.0784 21.4336H56.8461L56.8596 21.3843L47.4136 17.7762Z" transform="translate(7.45898)" fill="white"/>
<path d="M3.78219 0V0.772925H0V0H3.78219Z" transform="translate(0 29.1438)" fill="white"/>
<path d="M3.78219 0V0.775164H0V0H3.78219Z" transform="translate(70.2178 29.1426)" fill="white"/>
</svg>
