<svg width="175" height="175" viewBox="0 0 175 175" fill="none" xmlns="http://www.w3.org/2000/svg">
<path fill-rule="evenodd" clip-rule="evenodd" d="M87.4177 175C135.697 175 174.835 135.825 174.835 87.5C174.835 39.175 135.697 0 87.4177 0C39.1382 0 0 39.175 0 87.5C0 135.825 39.1382 175 87.4177 175ZM88.3381 44.2106C112.874 44.2106 132.551 63.9188 132.551 88.4933C132.551 99.6857 127.936 110.148 119.19 118.664C118.219 119.637 116.518 119.637 115.546 118.664L110.688 114.284C109.716 113.311 109.716 111.608 110.688 110.635C116.275 104.552 119.433 96.7659 119.433 88.4933C119.433 70.9749 105.1 56.6195 87.6094 56.6195C70.1184 56.6195 55.7856 70.7316 55.7856 88.4933C55.7856 96.7659 59.1865 104.552 64.531 110.635C65.5027 111.608 65.5027 113.311 64.531 114.284L59.6724 118.664C58.7007 119.637 57.0002 119.637 56.0286 118.664C48.2549 110.635 44.125 99.6857 44.125 88.4933C44.125 63.9188 63.8022 44.2106 88.3381 44.2106ZM149.07 88.0067C149.07 81.924 148.099 76.0845 146.398 70.245C146.155 68.7852 144.455 68.2985 142.997 68.5417L136.924 70.7316C135.466 70.975 134.495 72.6781 135.223 74.1379C136.681 78.5176 137.167 83.3838 137.167 88.0067C137.167 96.5227 134.738 104.552 130.365 112.095C129.636 113.554 130.122 115.258 131.337 115.988L136.681 119.394C138.139 120.124 139.839 119.637 140.325 118.421C145.912 109.175 149.07 98.4691 149.07 88.0067ZM39.5093 88.0066C39.5093 96.5225 41.9385 105.038 46.3113 112.094C47.04 113.554 46.5542 115.258 45.3396 115.987L39.7522 119.151C38.5376 119.88 36.8369 119.637 36.1082 118.177C30.2778 109.175 27.6057 98.469 27.6057 88.0066C27.6057 81.9238 28.5774 76.0844 30.2778 70.4882C30.5208 69.0283 32.2214 68.5416 33.679 68.7849L39.7522 70.7314C41.2097 70.9747 41.6956 72.678 41.4526 74.1378C40.238 78.5175 39.5093 83.1404 39.5093 88.0066Z" fill="white"/>
</svg>
