<svg width="92" height="92" viewBox="0 0 92 92" fill="none" xmlns="http://www.w3.org/2000/svg">
<path d="M90.9392 46C90.9392 70.8534 70.805 91 45.9696 91C21.1342 91 1 70.8534 1 46C1 21.1466 21.1342 1 45.9696 1C70.805 1 90.9392 21.1466 90.9392 46Z" stroke="white" stroke-width="2"/>
<path fill-rule="evenodd" clip-rule="evenodd" d="M15.2843 48.0909H5.09268V24.0424H0V15.7561H5.09268V10.7813C5.09268 4.02174 7.96675 0 16.1375 0H22.9381V8.28934H18.6877C15.5069 8.28934 15.2967 9.4473 15.2967 11.6084L15.2827 15.7561H22.9848L22.0833 24.0424H15.2827V48.0909H15.2843Z" transform="translate(33.4324 25.0908)" fill="white"/>
</svg>
