<svg width="162" height="163" viewBox="0 0 162 163" fill="none" xmlns="http://www.w3.org/2000/svg">
<path d="M80.9765 0C64.9608 0 49.3049 4.75365 35.9884 13.6598C22.6719 22.566 12.2929 35.2247 6.164 50.0351C0.035086 64.8456 -1.56852 81.1425 1.55598 96.8652C4.68047 112.588 12.3927 127.03 23.7175 138.365C35.0422 149.701 49.4709 157.42 65.1788 160.548C80.8866 163.675 97.1683 162.07 111.965 155.935C126.761 149.801 139.408 139.412 148.306 126.083C157.204 112.754 161.953 97.0833 161.953 81.0526C161.953 59.5561 153.421 38.9401 138.235 23.7398C123.049 8.53945 102.453 0 80.9765 0V0ZM114.717 90.914V108.07C114.721 110.845 113.739 113.53 111.947 115.646C110.154 117.762 107.667 119.171 104.932 119.62L101.356 120.228C98.2952 120.739 95.1575 120.011 92.6329 118.206C90.1082 116.401 88.4033 113.666 87.8932 110.603C87.3831 107.54 88.1097 104.399 89.913 101.872C91.7164 99.3451 94.4488 97.6386 97.5092 97.1281L103.852 96.0474C105.002 95.8555 106.047 95.2615 106.801 94.371C107.555 93.4805 107.969 92.3513 107.969 91.1842V57.9526L67.4804 63.7614V114.825C67.4849 117.599 66.503 120.285 64.7103 122.401C62.9176 124.517 60.4311 125.925 57.6958 126.375L53.9843 126.645H52.0274C49.074 126.676 46.2185 125.586 44.0363 123.593C41.8542 121.601 40.5077 118.855 40.268 115.908C40.0284 112.962 40.9136 110.034 42.7451 107.714C44.5766 105.395 47.2183 103.857 50.1379 103.41L56.4811 102.329C57.6223 102.172 58.6725 101.62 59.4492 100.769C60.2259 99.9172 60.6799 98.8202 60.7324 97.6684V43.6333C60.7869 42.861 61.1049 42.1308 61.6332 41.5652C62.1614 40.9996 62.8678 40.6328 63.634 40.5263L110.87 33.7719C111.352 33.7087 111.841 33.7483 112.307 33.888C112.772 34.0277 113.202 34.2643 113.569 34.5825C113.934 34.9027 114.225 35.2977 114.423 35.7406C114.621 36.1835 114.721 36.6639 114.717 37.1491V90.914Z" transform="translate(0 0.433838)" fill="white"/>
</svg>
