<svg width="162" height="163" viewBox="0 0 162 163" fill="none" xmlns="http://www.w3.org/2000/svg">
<path fill-rule="evenodd" clip-rule="evenodd" d="M128.876 71.8544C102.774 56.3385 59.7194 54.9119 34.8018 62.4816C30.7996 63.6972 26.5682 61.4363 25.3566 57.4313C24.144 53.4233 26.3999 49.1908 30.4041 47.9733C59.0087 39.2828 106.558 40.9611 136.607 58.8153C140.207 60.9543 141.387 65.6068 139.254 69.2034C137.119 72.8059 132.467 73.9934 128.876 71.8544V71.8544ZM128.021 94.8355C126.19 97.8098 122.305 98.7428 119.337 96.9164C97.5766 83.5279 64.3926 79.6487 38.6473 87.471C35.3094 88.4805 31.7829 86.597 30.7685 83.2608C29.7629 79.9197 31.6456 76.3966 34.9787 75.3804C64.3887 66.447 100.95 70.7733 125.944 86.1479C128.912 87.9772 129.846 91.868 128.021 94.8355V94.8355ZM118.113 116.906C116.658 119.295 113.551 120.043 111.173 118.587C92.158 106.954 68.2238 104.328 40.037 110.772C37.3208 111.395 34.6133 109.691 33.9945 106.974C33.3717 104.255 35.0678 101.545 37.7898 100.924C68.6357 93.8668 95.0946 96.904 116.438 109.959C118.818 111.413 119.567 114.525 118.113 116.906V116.906ZM80.976 0C36.2551 0 0 36.2883 0 81.0512C0 125.819 36.2551 162.105 80.976 162.105C125.699 162.105 161.953 125.819 161.953 81.0512C161.953 36.2883 125.699 0 80.976 0V0Z" transform="translate(0 0.433838)" fill="white"/>
</svg>
